<?xml version="1.0"?>
<svg xmlns="http://www.w3.org/2000/svg" xmlns:xlink="http://www.w3.org/1999/xlink" version="1.1" id="Capa_1" x="0px" y="0px" viewBox="0 0 490.58 490.58" style="enable-background:new 0 0 490.58 490.58;" xml:space="preserve" width="512px" height="512px" class=""><g><g>
	<path style="fill:#D4E1F4;" d="M112.849,61.649c0,12.539-5.224,24.033-13.584,31.869c-8.359,8.359-19.853,13.584-32.392,13.584   c-25.078,0-45.976-20.376-45.976-45.453c0-12.539,5.224-24.033,13.584-32.392s19.853-13.584,32.392-13.584   s24.555,5.224,32.392,13.584C107.625,37.094,112.849,48.588,112.849,61.649z" data-original="#D4E1F4"/>
	<path style="fill:#D4E1F4;" d="M240.327,377.208c13.061,0,25.6,5.224,34.482,14.106c8.882,8.882,14.106,20.898,14.106,34.482   c0,13.584-5.224,25.6-14.106,34.482c-8.882,8.882-20.898,14.106-34.482,14.106c-26.645,0-48.588-21.943-48.588-48.588   c0-13.061,5.225-25.6,14.106-34.482S227.265,377.208,240.327,377.208z" data-original="#D4E1F4"/>
</g><g>
	<path style="fill:#00CEC9" d="M387.135,381.388c8.882-8.882,20.898-14.106,34.482-14.106s25.6,5.224,34.482,14.106   s14.106,20.898,14.106,34.482c0,13.584-5.747,25.6-14.106,34.482c-8.882,8.882-20.898,14.106-34.482,14.106   c-26.645,0-48.588-21.943-48.588-48.588C373.029,402.808,378.253,390.269,387.135,381.388z" data-original="#00BBD3" class="active-path" data-old_color="#00BBD3"/>
	<path style="fill:#00CEC9" d="M89.861,334.367c3.135,2.09,5.747,4.18,8.359,6.792c8.882,8.882,14.106,20.898,14.106,34.482   c0,13.061-5.224,25.6-14.106,34.482c-8.882,8.882-20.898,14.106-34.482,14.106c-26.122-0.522-48.065-22.465-48.065-49.11   c0-13.584,5.747-25.6,14.106-34.482c8.882-8.882,20.898-14.106,34.482-14.106C73.665,326.531,82.547,329.143,89.861,334.367z" data-original="#00BBD3" class="active-path" data-old_color="#00BBD3"/>
	<path style="fill:#00CEC9" d="M403.331,107.102c-9.404-7.837-15.151-19.853-15.151-33.437c0-12.016,4.702-22.988,12.539-30.824   s18.808-12.016,30.824-12.016c12.016,0,22.988,4.702,30.824,12.539s12.539,18.808,12.539,30.824s-4.702,22.988-12.539,30.824   s-18.808,12.539-30.824,12.539C421.094,117.551,411.167,113.894,403.331,107.102z" data-original="#00BBD3" class="active-path" data-old_color="#00BBD3"/>
</g><path style="fill:#00CEC9" d="M329.665,181.29c0.522,2.612,1.045,5.747,1.045,8.359c12.016,4.18,22.988,11.494,30.302,21.42  c7.314,9.927,12.016,22.465,12.016,36.049c0,25.6-16.196,47.543-38.661,55.902c-6.269,2.612-13.584,3.657-20.898,3.657h-73.143  h-62.171c-16.196,0-31.347-6.792-42.318-17.241c-10.971-10.971-17.241-25.6-17.241-42.318c0-23.51,13.061-43.363,32.392-53.29  c-0.522-2.612-0.522-4.702-0.522-6.792c0-35.527,28.735-64.261,64.261-64.261c21.42,0,40.751,10.449,52.245,26.645  c5.747-2.612,12.016-4.18,18.808-4.18C307.2,145.241,325.486,160.914,329.665,181.29z" data-original="#4DCFE0" class="" data-old_color="#4DCFE0"/><path style="fill:#3A2C51" d="M421.616,351.608c-7.314,0-14.629,1.567-21.42,3.657L358.922,307.2  c18.286-14.106,29.78-36.049,29.78-60.082c0-17.241-5.224-32.914-15.151-45.453c-5.747-7.837-13.584-14.629-22.465-19.853  l54.335-54.857c7.837,4.18,16.718,6.269,26.122,6.269c16.196,0,30.825-6.269,41.796-17.241  c10.971-10.971,17.241-26.122,17.241-41.796s-6.269-30.824-17.241-41.796c-10.971-10.971-26.122-17.241-41.796-17.241  c-16.196,0-30.302,5.747-41.273,16.718c-10.971,10.971-17.241,26.122-17.241,41.796c0,12.016,3.135,22.988,9.404,32.392  l-48.065,48.065c-10.971-15.151-29.257-24.555-48.588-24.555c-4.702,0-9.404,0.522-13.584,1.567  c-14.629-15.151-35.527-24.033-57.469-24.033c-19.853,0-37.616,7.314-51.722,19.331l-40.751-37.616  c4.18-8.359,6.269-17.763,6.269-27.167c0-16.196-6.269-31.869-17.763-43.363C99.788,6.792,83.592,0,66.874,0  C50.678,0,35.004,6.269,23.51,18.286C11.494,29.78,5.225,45.453,5.225,61.649c0,33.959,27.69,61.127,61.649,61.127  c12.539,0,24.555-3.657,34.482-10.449l42.318,38.661c-5.224,10.449-8.359,21.943-8.882,34.482  c-19.853,14.106-31.869,37.094-31.869,61.649c0,13.061,3.657,26.122,10.449,37.616l-27.167,29.78  c-6.792-2.612-14.106-4.18-21.943-4.18c-17.241,0-33.437,6.792-45.976,18.808C6.269,342.727,0,358.4,0,375.118  c0,35.527,28.735,64.261,64.261,64.261c17.241,0,33.437-6.269,44.931-18.286C121.208,409.078,128,392.359,128,375.641  c0-15.673-5.747-30.824-16.196-42.318l21.943-24.555c12.539,8.882,27.69,14.106,43.886,14.106h47.02v41.273  c-11.494,2.612-21.42,8.359-29.78,16.718c-12.016,12.016-18.808,28.735-18.808,45.453c0,35.527,28.735,64.261,64.261,64.261  c17.241,0,33.437-6.792,45.453-18.808c12.016-12.016,18.808-28.212,18.808-45.453c0-17.241-6.792-33.437-18.808-45.453  c-8.359-8.359-18.808-14.106-29.78-16.718v-41.273h57.469c5.747,0,10.449-0.522,15.151-1.567l44.931,52.245  c-10.449,11.494-16.196,27.167-16.196,42.841c0,35.527,28.735,64.261,64.261,64.261c16.196,0,32.914-6.792,45.453-18.286  l0.522-0.522c12.016-12.539,18.286-28.735,18.286-45.453c0-17.241-6.792-33.437-18.808-45.453  C455.053,358.4,438.857,351.608,421.616,351.608z M273.241,425.796c0,8.882-3.135,17.241-9.404,23.51s-14.629,9.404-23.51,9.404  c-17.763,0-32.914-15.151-32.914-32.914c0-8.882,3.657-17.241,9.404-23.51c6.269-6.269,14.106-9.404,23.51-9.404  c8.882,0,17.241,3.135,23.51,9.404S273.241,416.914,273.241,425.796z M412.212,53.812c4.702-4.702,11.494-7.314,19.331-7.314  s14.629,2.612,19.853,7.837s7.837,12.016,7.837,19.853s-2.612,14.629-7.837,19.853s-12.016,7.837-19.853,7.837  c-6.792,0-12.539-2.09-17.241-6.269l-0.522-0.522c-6.269-5.224-9.404-13.061-9.404-21.42  C404.376,65.829,406.988,59.037,412.212,53.812z M87.771,82.547c-5.224,5.224-13.061,8.882-20.898,8.882  c-16.196,0-30.302-13.584-30.302-29.78c0-7.837,3.135-15.673,8.882-21.42s13.584-8.882,21.42-8.882s16.196,3.135,21.42,8.882  c5.747,5.747,8.882,13.584,8.882,21.42S94.041,76.8,88.294,82.024C88.294,82.547,88.294,82.547,87.771,82.547z M87.249,399.151  c-5.747,5.747-14.106,8.882-22.988,8.882c-17.763,0-32.914-15.151-32.914-32.914c0-8.359,3.657-17.241,9.404-23.51  c6.269-6.269,14.106-9.404,23.51-9.404c6.269,0,12.016,1.567,16.718,5.224c2.612,1.567,4.18,3.135,5.747,4.702  c6.269,6.269,9.404,14.106,9.404,23.51C96.653,384.522,92.996,392.882,87.249,399.151z M178.155,291.004  c-12.016,0-22.988-4.18-30.824-12.539c-8.359-8.359-13.061-19.853-13.061-31.347c0-16.718,9.404-31.869,24.033-39.184  c6.269-3.135,9.404-9.927,8.359-17.241c0-1.045,0-2.09,0-3.657c0-26.645,21.943-48.588,48.588-48.588  c15.673,0,30.302,7.314,39.706,19.853c4.18,6.269,12.539,8.359,19.331,5.224c4.18-2.09,8.359-2.612,12.539-2.612  c13.584,0,25.6,9.927,28.735,23.51c0.522,2.09,0.522,3.657,0.522,5.224c0,6.792,4.702,13.061,10.971,15.151  c8.882,2.612,16.718,8.359,22.465,15.673c0,0,0,0.522,0.522,0.522c5.747,7.314,8.882,16.196,8.882,26.122  c0,18.286-11.494,34.482-28.212,41.273c-6.269,2.09-11.494,2.612-15.673,2.612H178.155z M445.127,439.38  c-6.269,5.747-15.151,9.404-23.51,9.404c-17.763,0-32.914-15.151-32.914-32.914c0-8.882,3.657-17.241,9.404-23.51  c6.269-6.269,14.106-9.404,23.51-9.404c9.404,0,17.241,3.135,23.51,9.404c6.269,6.269,9.404,14.106,9.404,23.51  C454.531,424.229,451.396,432.588,445.127,439.38z" data-original="#3A2C51" class=""/></g> </svg>
