<?xml version="1.0"?>
<svg xmlns="http://www.w3.org/2000/svg" xmlns:xlink="http://www.w3.org/1999/xlink" version="1.1" id="Capa_1" x="0px" y="0px" viewBox="0 0 512 512" style="enable-background:new 0 0 512 512;" xml:space="preserve" width="512px" height="512px" class="hovered-paths"><g><rect x="17.455" y="34.909" style="fill:#D4E1F4;" width="477.091" height="106.473" data-original="#D4E1F4" class=""/><rect x="17.455" y="141.382" style="fill:#00CEC9" width="477.091" height="335.709" data-original="#4DCFE0" class="hovered-path active-path" data-old_color="#4DCFE0"/><g>
	<path style="fill:#3A2C51" d="M494.545,17.455H17.455C7.564,17.455,0,25.018,0,34.909v442.182c0,9.891,7.564,17.455,17.455,17.455   h477.091c9.891,0,17.455-7.564,17.455-17.455V34.909C512,25.018,504.436,17.455,494.545,17.455z M477.091,52.364v71.564H34.909   V52.364H477.091z M34.909,459.636v-300.8h442.182v300.8H34.909z" data-original="#3A2C51" class="" data-old_color="#3A2C51"/>
	<path style="fill:#3A2C51" d="M178.036,393.891c-4.073,0-7.564-1.164-11.055-4.073L79.709,320c-4.073-3.491-6.4-8.145-6.4-13.382   s2.327-10.473,6.4-13.382l87.273-69.818c7.564-5.818,18.618-4.655,24.436,2.909s4.655,18.618-2.909,24.436l-70.4,56.436   l70.4,56.436c7.564,5.818,8.727,16.873,2.909,24.436C188.509,391.564,183.273,393.891,178.036,393.891z" data-original="#3A2C51" class="" data-old_color="#3A2C51"/>
	<path style="fill:#3A2C51" d="M329.309,393.891c-5.236,0-10.473-2.327-13.382-6.4c-5.818-7.564-4.655-18.618,2.909-24.436   l70.4-56.436l-70.982-56.436c-7.564-5.818-8.727-16.873-2.909-24.436s16.873-8.727,24.436-2.909l87.273,69.818   c4.073,3.491,6.4,8.145,6.4,13.382c0,5.236-2.327,10.473-6.4,13.382l-87.273,69.818   C336.873,392.727,333.382,393.891,329.309,393.891z" data-original="#3A2C51" class="" data-old_color="#3A2C51"/>
	<path style="fill:#3A2C51" d="M219.345,446.255c-1.164,0-2.909,0-4.073-0.582c-9.309-2.327-15.127-11.636-12.8-20.945   l61.673-242.618c2.327-9.309,11.636-15.127,20.945-12.8s15.127,11.636,12.8,20.945l-61.673,242.618   C234.473,441.018,226.909,446.255,219.345,446.255z" data-original="#3A2C51" class="" data-old_color="#3A2C51"/>
</g></g> </svg>
