<?xml version="1.0"?>
<svg xmlns="http://www.w3.org/2000/svg" xmlns:xlink="http://www.w3.org/1999/xlink" version="1.1" id="Capa_1" x="0px" y="0px" viewBox="0 0 487.967 487.967" style="enable-background:new 0 0 487.967 487.967;" xml:space="preserve" width="512px" height="512px" class="hovered-paths"><g><rect x="194.351" y="194.351" style="fill:#D4E1F4;" width="99.265" height="99.265" data-original="#D4E1F4"/><path style="fill:#00CEC9" d="M382.433,105.012v277.42h-277.42v-277.42H382.433z M293.616,293.616v-99.265h-99.265v99.265H293.616z  " data-original="#4DCFE0" class="hovered-path active-path" data-old_color="#4DCFE0"/><g>
	<path style="fill:#3A2C51" d="M382.433,398.106h-277.42c-8.882,0-15.673-6.792-15.673-15.673v-277.42   c0-8.882,6.792-15.673,15.673-15.673h277.42c8.882,0,15.673,6.792,15.673,15.673v277.42   C398.106,391.314,391.314,398.106,382.433,398.106z M120.686,366.759h246.073V120.686H120.686V366.759z" data-original="#3A2C51" class=""/>
	<path style="fill:#3A2C51" d="M214.204,80.98c-8.882,0-15.673-6.792-15.673-15.673V15.673C198.531,6.792,205.322,0,214.204,0   s15.673,6.792,15.673,15.673v49.633C229.878,74.188,223.086,80.98,214.204,80.98z" data-original="#3A2C51" class=""/>
	<path style="fill:#3A2C51" d="M273.763,80.98c-8.882,0-15.673-6.792-15.673-15.673V15.673C258.09,6.792,264.882,0,273.763,0   c8.882,0,15.673,6.792,15.673,15.673v49.633C289.437,74.188,282.645,80.98,273.763,80.98z" data-original="#3A2C51" class=""/>
	<path style="fill:#3A2C51" d="M154.645,80.98c-8.882,0-15.673-6.792-15.673-15.673V15.673C138.971,6.792,145.763,0,154.645,0   c8.882,0,15.673,6.792,15.673,15.673v49.633C170.318,74.188,163.527,80.98,154.645,80.98z" data-original="#3A2C51" class=""/>
	<path style="fill:#3A2C51" d="M333.322,80.98c-8.882,0-15.673-6.792-15.673-15.673V15.673C317.649,6.792,324.441,0,333.322,0   c8.882,0,15.673,6.792,15.673,15.673v49.633C348.996,74.188,342.204,80.98,333.322,80.98z" data-original="#3A2C51" class=""/>
	<path style="fill:#3A2C51" d="M214.204,487.967c-8.882,0-15.673-6.792-15.673-15.673v-49.633c0-8.882,6.792-15.673,15.673-15.673   s15.673,6.792,15.673,15.673v49.633C229.878,481.176,223.086,487.967,214.204,487.967z" data-original="#3A2C51" class=""/>
	<path style="fill:#3A2C51" d="M273.763,487.967c-8.882,0-15.673-6.792-15.673-15.673v-49.633c0-8.882,6.792-15.673,15.673-15.673   c8.882,0,15.673,6.792,15.673,15.673v49.633C289.437,481.176,282.645,487.967,273.763,487.967z" data-original="#3A2C51" class=""/>
	<path style="fill:#3A2C51" d="M154.645,487.967c-8.882,0-15.673-6.792-15.673-15.673v-49.633c0-8.882,6.792-15.673,15.673-15.673   c8.882,0,15.673,6.792,15.673,15.673v49.633C170.318,481.176,163.527,487.967,154.645,487.967z" data-original="#3A2C51" class=""/>
	<path style="fill:#3A2C51" d="M333.322,487.967c-8.882,0-15.673-6.792-15.673-15.673v-49.633c0-8.882,6.792-15.673,15.673-15.673   c8.882,0,15.673,6.792,15.673,15.673v49.633C348.996,481.176,342.204,487.967,333.322,487.967z" data-original="#3A2C51" class=""/>
	<path style="fill:#3A2C51" d="M472.294,229.878h-49.633c-8.882,0-15.673-6.792-15.673-15.673s6.792-15.673,15.673-15.673h49.633   c8.882,0,15.673,6.792,15.673,15.673S481.176,229.878,472.294,229.878z" data-original="#3A2C51" class=""/>
	<path style="fill:#3A2C51" d="M472.294,289.437h-49.633c-8.882,0-15.673-6.792-15.673-15.673c0-8.882,6.792-15.673,15.673-15.673   h49.633c8.882,0,15.673,6.792,15.673,15.673C487.967,282.645,481.176,289.437,472.294,289.437z" data-original="#3A2C51" class=""/>
	<path style="fill:#3A2C51" d="M472.294,170.318h-49.633c-8.882,0-15.673-6.792-15.673-15.673s6.792-15.673,15.673-15.673h49.633   c8.882,0,15.673,6.792,15.673,15.673S481.176,170.318,472.294,170.318z" data-original="#3A2C51" class=""/>
	<path style="fill:#3A2C51" d="M472.294,348.996h-49.633c-8.882,0-15.673-6.792-15.673-15.673c0-8.882,6.792-15.673,15.673-15.673   h49.633c8.882,0,15.673,6.792,15.673,15.673C487.967,342.204,481.176,348.996,472.294,348.996z" data-original="#3A2C51" class=""/>
	<path style="fill:#3A2C51" d="M65.306,229.878H15.673C6.792,229.878,0,223.086,0,214.204s6.792-15.673,15.673-15.673h49.633   c8.882,0,15.673,6.792,15.673,15.673S74.188,229.878,65.306,229.878z" data-original="#3A2C51" class=""/>
	<path style="fill:#3A2C51" d="M65.306,289.437H15.673C6.792,289.437,0,282.645,0,273.763c0-8.882,6.792-15.673,15.673-15.673   h49.633c8.882,0,15.673,6.792,15.673,15.673C80.98,282.645,74.188,289.437,65.306,289.437z" data-original="#3A2C51" class=""/>
	<path style="fill:#3A2C51" d="M65.306,170.318H15.673C6.792,170.318,0,163.527,0,154.645s6.792-15.673,15.673-15.673h49.633   c8.882,0,15.673,6.792,15.673,15.673S74.188,170.318,65.306,170.318z" data-original="#3A2C51" class=""/>
	<path style="fill:#3A2C51" d="M65.306,348.996H15.673C6.792,348.996,0,342.204,0,333.322c0-8.882,6.792-15.673,15.673-15.673   h49.633c8.882,0,15.673,6.792,15.673,15.673C80.98,342.204,74.188,348.996,65.306,348.996z" data-original="#3A2C51" class=""/>
	<path style="fill:#3A2C51" d="M293.616,309.29h-99.265c-8.882,0-15.673-6.792-15.673-15.673v-99.265   c0-8.882,6.792-15.673,15.673-15.673h99.265c8.882,0,15.673,6.792,15.673,15.673v99.265   C309.29,302.498,302.498,309.29,293.616,309.29z M210.024,277.943h67.918v-67.918h-67.918V277.943z" data-original="#3A2C51" class=""/>
</g></g> </svg>
