<svg id="Layer_5" enable-background="new 0 0 64 64" height="512" viewBox="0 0 64 64" width="512" xmlns="http://www.w3.org/2000/svg"><g><path d="m4 31h4c.551 0 1-.448 1-1 0-5.43 2.089-10.37 5.484-14.102l-4.257-4.257c-4.48 4.822-7.227 11.274-7.227 18.359 0 .552.449 1 1 1z"/><path d="m30 9h1v-6h-1c-7.085 0-13.537 2.747-18.359 7.227l4.257 4.257c3.732-3.394 8.672-5.484 14.102-5.484zm-1.484-3.956.116 1.996c-.633.037-1.274.102-1.906.192l-.283-1.98c.686-.098 1.384-.168 2.073-.208zm-4.12.586.445 1.949c-.617.142-1.238.312-1.847.506l-.609-1.904c.663-.212 1.34-.398 2.011-.551zm-3.967 1.267.768 1.848c-.589.245-1.174.517-1.738.808l-.917-1.777c.612-.317 1.247-.612 1.887-.879z"/><path d="m5.339 39.036c.331-.949.901-1.81 1.661-2.494v-3.542h-2v6.004c.112 0 .226.022.339.032z"/><path d="m48.102 14.484 4.257-4.257c-4.822-4.48-11.274-7.227-18.359-7.227h-1v6h1c5.43 0 10.37 2.09 14.102 5.484z"/><path d="m58.661 39.036c.113-.01.226-.032.339-.033v-6.003h-2v3.543c.76.685 1.33 1.544 1.661 2.493z"/><path d="m55 30c0 .552.449 1 1 1h4c.551 0 1-.448 1-1 0-7.085-2.747-13.537-7.227-18.359l-4.257 4.257c3.395 3.732 5.484 8.672 5.484 14.102zm3.957-1.485-1.996.117c-.038-.637-.102-1.278-.192-1.907l1.98-.281c.097.682.167 1.379.208 2.071zm-.587-4.12-1.949.449c-.144-.624-.314-1.246-.506-1.85l1.905-.607c.208.655.393 1.331.55 2.008zm-2.145-5.854c.319.618.614 1.254.877 1.89l-1.848.766c-.242-.585-.514-1.17-.807-1.737z"/><path d="m54.388 37.249c-.442-.164-.91-.248-1.387-.248-1.658 0-3.164 1.043-3.747 2.595l-6 16.001c-.772 2.063.283 4.376 2.354 5.153.445.166.914.25 1.392.25 1.657 0 3.162-1.043 3.746-2.596l6-16.001c.773-2.063-.285-4.376-2.358-5.154z"/><path d="m48.544 21h2.183c-3.213-5.948-9.505-10-16.727-10h-4c-7.222 0-13.514 4.052-16.727 10h2.183c3.354-5.021 8.911-8 14.979-8h3.132c6.066 0 11.624 2.979 14.977 8z"/><path d="m14.745 39.596c-.583-1.552-2.089-2.595-3.747-2.595-.477 0-.945.084-1.391.249-2.069.777-3.126 3.09-2.354 5.154l6.001 16c.584 1.553 2.089 2.596 3.746 2.596.478 0 .947-.084 1.396-.251 2.067-.776 3.123-3.089 2.351-5.153z"/><path d="m5.381 43.106c-.259-.693-.374-1.403-.373-2.103-.244-.004-.481.038-.706.122-1.032.389-1.562 1.546-1.175 2.578l6 15.999c.376 1.001 1.567 1.548 2.573 1.172.199-.075.36-.18.501-.292-.335-.446-.617-.937-.819-1.474z"/><path d="m59.693 41.124c-.221-.083-.457-.124-.702-.12.001.7-.114 1.41-.373 2.102l-6.001 16.002c-.202.537-.484 1.028-.819 1.474.142.113.304.218.506.294.985.368 2.193-.173 2.568-1.174l6-16c.387-1.031-.142-2.188-1.179-2.578z"/></g></svg>