<svg height="512" viewBox="0 0 58 56" width="512" xmlns="http://www.w3.org/2000/svg"><g id="092---Traveling"><path id="Shape" d="m56.821 45.179c-1.5665895.4969606-3.0443243 1.2395409-4.378 2.2-1.232.827-3.229 1.7-4.312.727-1.554-1.4 1.509-4.879 1.509-8.51-.011-2.813-1.987-4.862-5.426-5.622-.9194604-.1872021-1.7722022-.6166801-2.47-1.244.4302195-1.1805404.5233619-2.4575267.269-3.688 1.66-1.729 4.379-1.808 7.206-4.9 7.4760506 4.0922855 10.7350713 13.1109671 7.602 21.037zm-16.136-23.172c2.2678326-.0465746 4.5213635.3695613 6.623 1.223-2.327 2.248-4.155 2.325-5.941 3.7l-1.4-4.207zm-2.332-4.578c.672-.673.808-.9 1.2-.908.341-.022.383.11 1.589 1.318.2407388.2815095.2127699.7037071-.063.951l-1.817 1.816-1.031-3.093c.0426243-.0250446.0833958-.0531167.122-.084zm-13.144-14.502c.136805-.1393619.3218389-.22096292.517-.228.1620171-.00772685.3200694.05158796.437.164l1.151 1.152c.2388244.28287775.2109838.70402247-.063.953l-.267.267-3.208-.875zm-7.419 10.139c-.0396676.0049707-.079053.01198-.118.021-.164217.0426461-.3388196-.0023273-.462-.119-.1163498-.1241705-.1615618-.2989903-.12-.464.0091703-.0378556.0158513-.0762711.02-.115.0976492-.3870704.2315751-.764072.4-1.126l2.1 1.049c-.5653925.3412396-1.1789338.595421-1.82.754zm11.828 5.662c-3.395 3.393-5.906 5.024-10.366 8.21-.6076273.4320572-.8859975 1.1939964-.7 1.916l.88 3.52-.621.621-7.8-7.8.621-.62 3.52.881c.7233613.1821486 1.4843318-.098648 1.916-.707 3.165-4.43 4.831-6.985 8.211-10.365.2266362-.2273151.3303751-.5496081.2788892-.8664445s-.2519376-.5896984-.5388892-.7335555l-14.891-7.446c1.1940466-1.28845617 3.0047405-1.80739333 4.7-1.347l15.532 4.238c.5186915.13910294 1.0722161-.00832585 1.453-.387l4.4-4.4c3.631-3.63 6.522-3.585 7.7-3.353.139.787.3 3.654-3.386 7.734-1.906 2.11-4.325 4.559-5.02 5.258-.4006996.4003755-.5391261.9936318-.357 1.53l4.859 14.569c.4611064 1.6950761-.0575056 3.5059797-1.346 4.7l-7.443-14.893c-.1438881-.2875476-.4172668-.4883659-.7346844-.5396837s-.6401488.0531256-.8673156.2806837zm2.07 5.669 1.049 2.1c-.3954446.1886692-.8125684.3280463-1.242.415-.1643737.0468149-.3412093.000913-.4620612-.1199388-.1208518-.1208519-.1667537-.2976875-.1199388-.4620612.1488375-.6820689.41079-1.3344149.775-1.93zm-7.145 10.403c.6754682 1.2274466 1.7430502 2.1929181 3.032 2.742 2.2.911 5.074.579 4.921 2.405-.1408182 1.0286281-.4291136 2.0315997-.856 2.978-1.2 3.068-1.126 3.908-.766 6 .3093681 1.2054611.2917636 2.4716061-.051 3.668-5.526189-4.0951934-8.0113259-11.1362828-6.28-17.793zm13.966 21.013c2.2-1.471 4.561-2.22 8.7-1.918.5315174.042423 1.0605338.111846 1.585.208-3.1631306 1.6376152-6.7621446 2.2359928-10.285 1.71zm12.664-3.194c-3.1420074-.9230982-6.4658935-1.0400275-9.665-.34-2.0473605.5409658-3.9404449 1.5517065-5.529 2.952-1.1803059-.3677111-2.3167571-.863672-3.389-1.479.5702468-1.6614704.6586533-3.4504008.255-5.16-.3-1.741-.392-2.256.657-4.934.5016828-1.1245531.8342815-2.3171234.987-3.539.1498002-1.4144916-.6651176-2.7543967-1.99-3.272-1.489-.652-2.937-.643-4.16-1.149-1.4755532-.7423801-2.5099214-2.1424528-2.786-3.771.7052608-1.5546105 1.6441126-2.9922273 2.784-4.263.2-.228.429-.429.643-.644.0978008.4465486.3188308.856736.638 1.184 1.125 1.126 2.6.739 4.015.082l3.355 6.714c.2614851.5212534.757271.8853242 1.3328962.9787865.5756252.0934624 1.161131-.0950426 1.5741038-.5067865.3075382-.2892651.5930017-.6011357.854-.933.8983313.679097 1.9341281 1.153823 3.035 1.391 1.754.387 3.847 1.341 3.856 3.673 0 2.581-1.886 4.836-1.94 7.338-.052 2.423 1.991 3.863 4.328 3.553 2.4-.31 3.747-1.767 5.5-2.663-1.1300836 1.8613368-2.6087928 3.487068-4.355 4.788z"/><path id="Shape" d="m13.411 54.088c-6.011-2.706-9.611-6.78-10.694-12.109-1.588-7.809 2.737-16.821 7.427-21.89.3655105-.4065885.3367332-1.0313491-.0646063-1.4026156-.40133956-.3712664-1.02644676-.3513935-1.4033937.0446156-5.193 5.613-9.656 15.101-7.919 23.647 1.219 5.994 5.2 10.548 11.832 13.534.5036837.226989 1.096011.0026837 1.323-.501s.0026837-1.096011-.501-1.323z"/><path id="Shape" d="m9.492 40.726c-.33181453-2.5517343.47863472-5.1199254 2.215-7.019.3789722-.3923789.3735524-1.0160848-.0121814-1.4018186s-1.0094397-.3911536-1.4018186-.0121814c-2.15945679 2.3232327-3.18177524 5.4820613-2.793 8.63.453 4.566 3.274 8.8 7.944 11.909.4595009.306518 1.080482.1825009 1.387-.277s.1825009-1.080482-.277-1.387c-4.162-2.775-6.67-6.483-7.062-10.442z"/><path id="Shape" d="m16.742 42.626c-.2659828-1.3845715.0865436-2.8162309.965-3.919.3789722-.3923789.3735524-1.0160848-.0121814-1.4018186s-1.0094397-.3911536-1.4018186-.0121814c-2.515 2.515-2.311 8.1 2 12.414.3923789.3789722 1.0160848.3735524 1.4018186-.0121814s.3911536-1.0094397.0121814-1.4018186c-1.5849419-1.511312-2.6271176-3.5032208-2.965-5.667z"/><circle id="Oval" cx="12" cy="17" r="1"/></g></svg>