<?xml version="1.0"?>
<svg xmlns="http://www.w3.org/2000/svg" xmlns:xlink="http://www.w3.org/1999/xlink" version="1.1" id="Capa_1" x="0px" y="0px" viewBox="0 0 425.796 425.796" style="enable-background:new 0 0 425.796 425.796;" xml:space="preserve" width="512px" height="512px" class=""><g><path style="fill:#00CEC9" d="M154.384,149.42L37.878,216.294c-12.016-20.898-17.763-43.886-17.763-66.351  c0-46.498,24.555-91.951,67.918-116.506c20.898-12.016,43.886-17.763,66.351-17.763c46.498,0,91.429,24.555,115.984,67.396  L154.384,149.42z" data-original="#4DCFE0" class="" data-old_color="#4DCFE0"/><g>
	<path style="fill:#3A2C51;" d="M405.682,320.784c-5.224,0-7.314-1.567-13.061-7.314c-6.269-6.269-16.196-16.196-34.482-16.196   c-18.286,0-28.735,9.927-35.004,16.196c-5.224,5.224-7.314,7.314-12.539,7.314s-7.314-1.567-13.061-7.314   c-6.269-6.269-16.196-16.196-34.482-16.196c-2.09,0-4.18,0-6.269,0.522l-80.98-142.629l102.922-58.514   c7.314-4.18,9.927-13.584,5.747-21.42C258.351,28.735,208.196,0,154.384,0c-26.122,0-51.722,6.792-74.188,19.853   C33.176,46.498,4.441,96.131,4.441,149.943c0,26.122,6.792,51.722,19.853,74.188c3.135,5.224,8.359,7.837,13.584,7.837   c2.612,0,5.224-0.522,7.837-2.09l102.922-59.037l80.457,141.584c-0.522,0.522-1.045,1.045-1.045,1.045   c-5.224,5.224-7.314,7.314-12.539,7.314s-7.314-1.567-13.061-7.314c-6.269-6.269-16.196-16.196-34.482-16.196   s-28.735,9.927-35.004,16.196c-5.224,5.224-7.314,7.314-12.539,7.314c-5.224,0-7.314-1.567-13.061-7.314   c-6.269-6.269-16.196-16.196-34.482-16.196S44.669,307.2,38.4,313.469c-5.747,5.747-7.837,7.314-13.061,7.314   c-8.882,0-15.673,6.792-15.673,15.673s6.792,15.673,15.673,15.673c18.286,0,28.212-9.927,34.482-16.196   c5.747-5.747,7.837-7.314,13.061-7.314c5.224,0,6.792,1.567,12.539,7.314c6.792,6.269,16.718,16.196,35.004,16.196   s28.212-9.927,34.482-16.196c5.747-5.747,7.837-7.314,13.061-7.314s6.792,1.567,12.539,7.314   c6.792,6.269,16.718,16.196,35.004,16.196s28.212-9.927,34.482-16.196c5.747-5.747,7.837-7.314,13.061-7.314   s6.792,1.567,12.539,7.314c6.792,6.269,16.718,16.196,35.004,16.196c18.286,0,28.212-9.927,34.482-16.196   c5.747-5.747,7.837-7.314,13.061-7.314s6.792,1.567,12.539,7.314c6.792,6.269,16.718,16.196,35.004,16.196   c8.882,0,15.673-6.792,15.673-15.673S414.563,320.784,405.682,320.784z M44.669,194.351c-5.747-14.106-8.882-29.257-8.882-44.408   c0-42.318,22.988-82.024,60.082-102.922c17.763-10.449,38.139-15.673,58.514-15.673c37.616,0,72.098,17.241,94.041,46.498   l-101.878,57.992L44.669,194.351z" data-original="#3A2C51" class="active-path"/>
	<path style="fill:#3A2C51;" d="M405.682,425.796c-18.286,0-28.735-9.927-35.004-16.196c-5.225-5.224-7.314-7.314-12.539-7.314   s-7.314,1.567-13.061,7.314c-6.269,6.269-16.196,16.196-34.482,16.196c-18.286,0-28.735-9.927-35.004-16.196   c-5.224-5.224-7.314-7.314-12.539-7.314s-7.314,1.567-13.061,7.314c-6.269,6.269-16.196,16.196-34.482,16.196   s-28.735-9.927-35.004-16.196c-5.224-5.224-7.314-7.314-12.539-7.314c-5.224,0-7.314,1.567-13.061,7.314   c-6.269,6.269-16.196,16.196-34.482,16.196S91.69,415.869,85.42,409.6c-5.224-5.224-7.314-7.314-12.539-7.314   s-7.314,1.567-13.061,7.314c-6.792,6.269-16.718,16.196-34.482,16.196c-8.882,0-15.673-6.792-15.673-15.673   s6.792-15.673,15.673-15.673c5.224,0,7.314-1.567,13.061-7.314c6.792-6.269,16.718-16.196,34.482-16.196   c18.286,0,28.212,9.927,34.482,16.196c5.747,5.747,7.837,7.314,13.061,7.314c5.224,0,6.792-1.567,12.539-7.314   c6.792-6.269,16.718-16.196,35.004-16.196s28.212,9.927,34.482,16.196c5.747,5.747,7.837,7.314,13.061,7.314   s6.792-1.567,12.539-7.314c6.792-6.269,16.718-16.196,35.004-16.196s28.212,9.927,34.482,16.196   c5.747,5.747,7.837,7.314,13.061,7.314s6.792-1.567,12.539-7.314c6.792-6.269,16.718-16.196,35.004-16.196   c18.286,0,28.212,9.927,34.482,16.196c5.747,5.747,7.837,7.314,13.061,7.314c8.882,0,15.673,6.792,15.673,15.673   S414.563,425.796,405.682,425.796z" data-original="#3A2C51" class="active-path"/>
</g></g> </svg>
