<svg height="512" viewBox="0 0 58 58" width="512" xmlns="http://www.w3.org/2000/svg"><g id="099---Hiking"><circle id="Oval" cx="47" cy="11" r="5"/><path id="Shape" d="m46 1v.909c0 .55228475.4477153 1 1 1s1-.44771525 1-1v-.909c0-.55228475-.4477153-1-1-1s-1 .44771525-1 1z"/><path id="Shape" d="m48 21v-.909c0-.5522847-.4477153-1-1-1s-1 .4477153-1 1v.909c0 .5522847.4477153 1 1 1s1-.4477153 1-1z"/><path id="Shape" d="m57 10h-.909c-.5522847 0-1 .4477153-1 1s.4477153 1 1 1h.909c.5522847 0 1-.4477153 1-1s-.4477153-1-1-1z"/><path id="Shape" d="m37 12h.909c.5522847 0 1-.4477153 1-1s-.4477153-1-1-1h-.909c-.5522847 0-1 .4477153-1 1s.4477153 1 1 1z"/><path id="Shape" d="m54.778 3.222c-.3904999-.39038194-1.0235001-.39038194-1.414 0l-.642.642c-.2599566.25107447-.3642126.62287789-.2726972.97250732.0915155.34962944.3645604.6226744.7141899.71418984.3496294.09151544.7214328-.01274058.9725073-.27269716l.642-.642c.3903819-.39049985.3903819-1.02350015 0-1.414z"/><path id="Shape" d="m39.864 16.722-.642.642c-.2599566.2510745-.3642126.6228779-.2726972.9725073.0915155.3496295.3645604.6226744.7141899.7141899.3496294.0915154.7214328-.0127406.9725073-.2726972l.642-.642c.3789722-.3923789.3735524-1.0160848-.0121814-1.4018186s-1.0094397-.3911536-1.4018186-.0121814z"/><path id="Shape" d="m54.136 16.722c-.3923789-.3789722-1.0160848-.3735524-1.4018186.0121814s-.3911536 1.0094397-.0121814 1.4018186l.642.642c.3923789.3789722 1.0160848.3735524 1.4018186-.0121814s.3911536-1.0094397.0121814-1.4018186z"/><path id="Shape" d="m41.278 3.864-.642-.642c-.3923789-.37897221-1.0160848-.37355237-1.4018186.01218142-.3857338.3857338-.3911536 1.00943969-.0121814 1.40181858l.642.642c.3923789.37897221 1.0160848.37355237 1.4018186-.01218142.3857338-.3857338.3911536-1.00943969.0121814-1.40181858z"/><path id="Shape" d="m12 30c.5522847 0 1-.4477153 1-1v-5.556c-.6053465.3599241-1.2957468.5518554-2 .556v2c0 .5522847-.4477153 1-1 1-.55228475 0-1-.4477153-1-1v-2h-4v2c0 .5522847-.44771525 1-1 1s-1-.4477153-1-1v-2c-.70425323-.0041446-1.39465346-.1960759-2-.556v5.556c0 .5522847.44771525 1 1 1z"/><path id="Shape" d="m10.67 2c-1.66283277-.00608805-3.19249486.90852103-3.97413891 2.37620031-.78164405 1.46767927-.68690419 3.24739842.24613891 4.62379969h6.058c.4134087.00134342.8220344.08851691 1.2.256 1.0671246-1.34910861 1.2671483-3.19023426.5146408-4.73703143-.7525074-1.54679718-2.324524-2.52583599-4.0446408-2.51896857z"/><path id="Shape" d="m10 54h-6v3h8v-1c0-1.1045695-.8954305-2-2-2z"/><path id="Shape" d="m29 20h-4.05c-.5274038-.0018167-1.0328755-.2112623-1.407-.583l-.111-.111-1.892 2.36.457.457c.564529.5605529 1.327443.8757086 2.123.877h4.88z"/><path id="Shape" d="m25 50v-1c0-1.1045695-.8954305-2-2-2h-6v3z"/><path id="Shape" d="m14 15v-3c0-.5522847-.4477153-1-1-1h-12c-.55228475 0-1 .4477153-1 1v3z"/><path id="Shape" d="m33.992 21.66c.0454157-.4233431-.0912172-.8460408-.3758329-1.1627044-.2846158-.3166636-.6903949-.4974539-1.1161671-.4972956l-1.5-.0000001v3.0000001h1.357c.8023865.0220431 1.4990345-.54891 1.635-1.34z"/><path id="Shape" d="m31 25v24c-.0023852.2603843.1012164.5105442.287.693.1850669.1964139.4431336.307531.713.307.5522847 0 1-.4477153 1-1v-24.059c-.2111919.0383858-.4253498.0581285-.64.059z"/><path id="Shape" d="m12.718 31.906c-.543.133-.05.094-8.718.094v20h5.064l.936-14.066c.0283089-1.0819397.9177196-1.9419999 2-1.934h2c1.0770519-.0006981 1.9612263.851646 2 1.928l.883 7.072h5.117v-9c-.0033061-2.7600532-2.2399468-4.9966939-5-5h-2.765c-.016.019-.235.215-.254.232-.3599793.3239553-.7934878.5552971-1.263.674z"/><path id="Shape" d="m1 20c0 1.1045695.8954305 2 2 2h8c1.1045695 0 2-.8954305 2-2v-3h-12z"/><path id="Shape" d="m44.134 28.535-2.552 4.465h6.839l-2.551-4.465c-.1781085-.3113357-.5093183-.5034358-.868-.5034358s-.6898915.1921001-.868.5034358z"/><path id="Shape" d="m15 29h2v-9.46c.000086-.4046536.2440332-.7693712.6179987-.9239494.3739654-.1545782.8042299-.0685454 1.0900013.2179494l1.41 1.41 1.891-2.361-4.009-4.006c-.5356256-.5274233-1.2488522-.8358939-2-.865v1.988c-.002145.7113268-.3832487 1.3675874-1 1.722z"/><path id="Shape" d="m40.438 35-5.438 9.521v4.479c-.0033144.3414397-.0655622.679743-.184 1h2.544c.6225762-.0008027 1.2298547.1928831 1.737.554l5.965 4.262c.1683278.1209792.3707122.185406.578.184l10.36.0000225v-8.7340225l-6.436-11.266z"/><path id="Shape" d="m15 50v-3.938l-.992-7.938c-.0051549-.0411351-.0078264-.0825435-.008-.124h-2l-.942 14.16c1.5048851.4151568 2.629429 1.6698165 2.878 3.211l2.9-3.387c-1.0339407-.0850584-1.8311934-.9465776-1.836-1.984z"/><path id="Shape" d="m43.9 56.446-5.965-4.262c-.1674973-.1203753-.3687357-.1847716-.575-.184h-17.44c-.2932951.0032777-.5711042.1321694-.763.354l-4.8 5.6c-.013.017-.028.032-.043.049h41.686v-1.003h-10.36c-.6236001.0014286-1.2320208-.192287-1.74-.554z"/></g></svg>