<svg id="Capa_1" enable-background="new 0 0 512 512" height="512" viewBox="0 0 512 512" width="512" xmlns="http://www.w3.org/2000/svg"><path d="m512 241c0-90.98-74.02-165-165-165-9.94 0-19.84.89-29.56 2.64-20.85-38.43-60.99-62.64-105.44-62.64-66.17 0-120 53.83-120 120 0 55.06 37.35 102.9 90.38 116.32 1.52 22.74 7.7 44.3 17.62 63.68h101v-60h120v30h60v51.28c19.58-27.19 31-60.48 31-96.28zm-317.11-63.38c-16.35-6.74-27.89-22.86-27.89-41.62 0-24.81 20.19-45 45-45 14.79 0 27.93 7.17 36.13 18.22-23.32 17.53-41.84 41.11-53.24 68.4z"/><path d="m121 496h-60v-210h60z"/><path d="m391 496h-60v-210h60z"/><path d="m151 346h150v90h-150z"/><path d="m421 316h30v150h-30z"/><path d="m0 316h31v150h-31z"/></svg>