<?xml version="1.0"?>
<svg xmlns="http://www.w3.org/2000/svg" xmlns:xlink="http://www.w3.org/1999/xlink" version="1.1" id="Capa_1" x="0px" y="0px" viewBox="0 0 496.327 496.327" style="enable-background:new 0 0 496.327 496.327;" xml:space="preserve" width="512px" height="512px" class="hovered-paths"><g><path style="fill:#D4E1F4;" d="M286.824,159.869v20.898c-12.539-2.09-25.6-3.135-38.661-3.135c-13.061,0-26.122,1.045-38.661,3.135  v-20.898c0-21.42,17.241-38.661,38.661-38.661c10.449,0,20.376,4.18,27.167,11.494C282.122,140.016,286.824,148.898,286.824,159.869  z" data-original="#D4E1F4"/><path style="fill:#00CEC9" d="M286.824,180.767c98.22,16.718,171.886,96.131,171.886,192.261v2.09H37.616v-2.09  c0-96.131,74.188-175.543,171.886-192.261c12.539-2.09,25.6-3.135,38.661-3.135S274.286,178.678,286.824,180.767z" data-original="#4DCFE0" class="hovered-path active-path" data-old_color="#4DCFE0"/><path style="fill:#3A2C51" d="M480.653,359.445h-6.792c-6.269-91.951-75.755-169.796-171.363-191.739v-7.837  c0-13.584-5.747-27.167-15.673-37.616s-24.033-16.718-38.661-16.718c-29.78,0-54.335,24.555-54.335,54.335v7.837  C98.22,189.649,28.735,267.494,22.465,359.445h-6.792C6.792,359.445,0,366.237,0,375.118s6.792,15.673,15.673,15.673h464.98  c8.882,0,15.673-6.792,15.673-15.673S489.535,359.445,480.653,359.445z M248.163,136.882c6.269,0,12.016,2.612,15.673,6.269  c3.135,3.657,7.314,9.404,7.314,16.718v3.135c-15.151-1.567-30.825-1.567-45.976,0v-3.135  C225.175,147.331,235.624,136.882,248.163,136.882z M212.114,196.441c23.51-3.657,49.11-3.657,72.098,0  c87.249,14.629,151.51,82.547,158.302,163.004H53.812C60.604,278.465,124.865,211.069,212.114,196.441z" data-original="#3A2C51" class="" data-old_color="#3A2C51"/></g> </svg>
